<svg width="1024" height="1024" viewBox="0 0 1024 1024" fill="none" xmlns="http://www.w3.org/2000/svg">
<g clip-path="url(#clip0_101_369)">
<mask id="mask0_101_369" style="mask-type:luminance" maskUnits="userSpaceOnUse" x="0" y="0" width="1024" height="1024">
<path d="M768 0H256C114.615 0 0 114.615 0 256V768C0 909.385 114.615 1024 256 1024H768C909.385 1024 1024 909.385 1024 768V256C1024 114.615 909.385 0 768 0Z" fill="white"/>
</mask>
<g mask="url(#mask0_101_369)">
<g filter="url(#filter0_di_101_369)">
<path d="M768 0H256C114.615 0 0 114.615 0 256V768C0 909.386 114.615 1024 256 1024H768C909.386 1024 1024 909.386 1024 768V256C1024 114.615 909.386 0 768 0Z" fill="url(#paint0_radial_101_369)"/>
</g>
</g>
<path d="M271.062 856.241C265.991 848.125 255.394 831.251 247.514 818.744C231.512 793.346 191.754 730.007 176.448 705.529C170.958 696.747 164.226 686.079 161.49 681.821C156.763 674.468 139.318 646.831 135.517 640.677C133.775 637.854 133.779 637.725 135.722 634.648C136.814 632.918 138.592 629.979 139.674 628.116C140.757 626.253 145.395 618.851 149.983 611.666C154.57 604.481 160.7 594.684 163.604 589.894C166.508 585.104 169.877 579.661 171.091 577.798C179.49 564.902 194.823 540.803 194.823 540.497C194.823 540.293 197.136 536.519 199.963 532.11C208.742 518.421 223.134 495.727 232.972 480.065C238.153 471.815 244.325 462.018 246.688 458.292C249.051 454.567 257.439 441.286 265.329 428.779L279.674 406.039L350.287 405.555L420.9 405.071L425.766 397.611C428.442 393.508 431.315 388.827 432.151 387.209L433.671 384.267H511.788H589.905L594.308 391.282C616.51 426.658 664.571 502.681 666.757 505.882C668.277 508.107 669.515 510.502 669.507 511.204C669.501 511.907 665.441 518.795 660.487 526.512L651.48 540.543L630.529 540.804C619.007 540.947 609.579 540.88 609.579 540.654C609.579 540.427 613.494 533.941 618.28 526.239C623.066 518.537 626.981 511.761 626.981 511.181C626.981 510.6 621.217 500.969 614.171 489.777C607.126 478.584 598.862 465.398 595.808 460.473C592.753 455.548 585.583 444.222 579.873 435.303L569.492 419.087L511.515 419.337L453.537 419.586L444.508 434.585C439.542 442.834 433.727 452.305 431.587 455.631L427.696 461.679L369.993 461.716L312.289 461.753L304.554 474.299C292.469 493.903 288.444 500.328 268.341 532.101C257.995 548.452 244.77 569.451 238.952 578.765C233.135 588.079 227.397 597.223 226.202 599.086C218.539 611.029 205.285 632.417 203.973 634.955C202.212 638.364 201.399 636.829 223.401 671.66C228.611 679.909 237.256 693.723 242.611 702.357C247.966 710.991 261.031 731.893 271.644 748.805C282.257 765.717 295.918 787.502 302.001 797.218L313.061 814.881L424.34 814.635L535.619 814.389L548.911 793.101C556.222 781.392 567.685 763.129 574.385 752.516C585.296 735.23 586.397 733.096 584.945 732.033C583.653 731.087 566.697 723.643 558.055 720.227C556.653 719.673 557.488 718.779 562.405 715.572C565.752 713.389 575.886 706.778 584.926 700.882C593.965 694.985 607.669 686.016 615.38 680.951C623.09 675.886 635.77 667.634 643.557 662.613L657.716 653.486L658.366 659.912C658.724 663.446 660.503 680.054 662.321 696.819C664.138 713.584 666.312 733.832 667.152 741.815C667.991 749.798 669.011 759.053 669.418 762.381C669.825 765.71 669.992 768.598 669.79 768.8C669.588 769.003 663.898 766.436 657.145 763.096C650.392 759.757 643.907 756.736 642.734 756.383C640.219 755.628 639.681 756.393 617.117 792.723C608.983 805.821 594.714 828.768 585.409 843.717L568.49 870.896L424.387 870.947L280.283 870.997L271.062 856.241ZM429.201 631.261C426.66 627.136 421.689 619.189 418.155 613.601C414.621 608.013 402.671 588.853 391.599 571.024C380.528 553.195 370.069 536.431 368.357 533.77C361.952 523.813 354.344 511.196 354.344 510.529C354.344 510.15 358.321 503.576 363.182 495.92L372.02 482L389.527 481.944C399.156 481.913 408.666 481.716 410.66 481.506C412.654 481.296 414.286 481.548 414.286 482.065C414.286 483.134 411.941 486.955 402.551 501.188L395.956 511.184L399.468 516.671C401.4 519.688 408.724 531.302 415.744 542.478C422.764 553.655 432.761 569.548 437.959 577.798C443.158 586.047 448.984 595.3 450.907 598.36L454.402 603.924H512.11H569.817L576.132 593.522C579.606 587.801 585.616 578.33 589.488 572.476L596.527 561.831L653.908 561.347L711.288 560.864L740.029 514.9C755.837 489.62 780.509 450.172 794.856 427.237C817.614 390.857 820.795 385.303 819.798 383.693C818.058 380.884 782.793 325.434 779.238 319.917C773.926 311.674 760.49 290.382 752.677 277.824C750.193 273.833 741.052 259.245 732.363 245.408C723.674 231.57 715.095 217.745 713.299 214.685L710.033 209.121L599.139 209.13L488.246 209.14L486.147 212.278C484.992 214.004 478.747 223.908 472.269 234.286C465.79 244.664 459.093 255.332 457.385 257.993C454.662 262.238 450.075 269.485 433.807 295.248C431.623 298.708 427.844 304.804 425.41 308.795C422.975 312.787 414.719 325.85 407.062 337.825C399.406 349.8 389.749 365.149 385.604 371.935L378.067 384.273H344.453C325.61 384.273 310.838 383.896 310.838 383.416C310.838 382.946 312.167 380.442 313.791 377.852C315.415 375.263 319.587 368.572 323.062 362.984C326.536 357.396 330.356 351.3 331.551 349.437C335.094 343.911 347.027 324.823 367.984 291.156C378.827 273.738 391.494 253.49 396.133 246.16C400.772 238.831 405.287 231.55 406.167 229.981C407.047 228.411 409.777 223.981 412.235 220.135C414.692 216.289 418.661 210.001 421.053 206.161C423.446 202.322 427.797 195.379 430.721 190.733C433.646 186.087 440.172 175.702 445.223 167.656L454.408 153.027L598.631 153.015L742.855 153.002L751.3 166.307C755.945 173.625 765.593 188.975 772.741 200.417C779.888 211.86 786.728 222.746 787.941 224.608C790.404 228.392 819.867 274.985 827.408 287.022C830.075 291.28 834.495 298.247 837.228 302.505C839.962 306.762 844.404 313.73 847.099 317.987C859.921 338.238 880.156 370.073 884.702 377.146L889.763 385.019L884.687 393.112C881.895 397.564 876.206 406.649 872.045 413.301C867.884 419.954 863.743 426.486 862.843 427.816C861.942 429.147 858.894 433.937 856.069 438.46C853.244 442.984 847.898 451.475 844.189 457.33C836.343 469.716 808.933 513.328 794.928 535.71C789.599 544.225 777.991 562.732 769.132 576.835C760.272 590.939 750.94 605.853 748.393 609.977L743.764 617.477H674.423H605.082L603.133 619.654C602.061 620.851 598.831 625.633 595.955 630.279L590.726 638.727L512.274 638.747L433.822 638.766L429.201 631.261Z" fill="url(#paint1_linear_101_369)" stroke="white" stroke-width="11.9745"/>
</g>
<defs>
<filter id="filter0_di_101_369" x="-511.806" y="0" width="2047.61" height="2047.61" filterUnits="userSpaceOnUse" color-interpolation-filters="sRGB">
<feFlood flood-opacity="0" result="BackgroundImageFix"/>
<feColorMatrix in="SourceAlpha" type="matrix" values="0 0 0 0 0 0 0 0 0 0 0 0 0 0 0 0 0 0 127 0" result="hardAlpha"/>
<feOffset dy="511.806"/>
<feGaussianBlur stdDeviation="255.903"/>
<feColorMatrix type="matrix" values="0 0 0 0 0 0 0 0 0 0 0 0 0 0 0 0 0 0 0.25 0"/>
<feBlend mode="normal" in2="BackgroundImageFix" result="effect1_dropShadow_101_369"/>
<feBlend mode="normal" in="SourceGraphic" in2="effect1_dropShadow_101_369" result="shape"/>
<feColorMatrix in="SourceAlpha" type="matrix" values="0 0 0 0 0 0 0 0 0 0 0 0 0 0 0 0 0 0 127 0" result="hardAlpha"/>
<feOffset dy="204.723"/>
<feGaussianBlur stdDeviation="102.361"/>
<feComposite in2="hardAlpha" operator="arithmetic" k2="-1" k3="1"/>
<feColorMatrix type="matrix" values="0 0 0 0 1 0 0 0 0 1 0 0 0 0 1 0 0 0 0.25 0"/>
<feBlend mode="normal" in2="shape" result="effect2_innerShadow_101_369"/>
</filter>
<radialGradient id="paint0_radial_101_369" cx="0" cy="0" r="1" gradientUnits="userSpaceOnUse" gradientTransform="translate(216.854 1047.61) rotate(-74.2658) scale(1088.39 4931.06)">
<stop stop-color="#FA4438"/>
<stop offset="1" stop-color="#FF4000"/>
</radialGradient>
<linearGradient id="paint1_linear_101_369" x1="512" y1="153.002" x2="512" y2="870.997" gradientUnits="userSpaceOnUse">
<stop stop-color="white"/>
<stop offset="1" stop-color="white"/>
</linearGradient>
<clipPath id="clip0_101_369">
<rect width="1024" height="1024" fill="white"/>
</clipPath>
</defs>
</svg>
